# xmcd CD database file
#
# Track frame offsets:
#	150
#	12603
#	44991
#
# Disc length: 1108 seconds
#
# Revision: 0
# Processed by: cddbd v1.5.1PL0 Copyright (c) Steve Scherf et al.
# Submitted via: CDex 1.51
#
DISCID=28045203
DTITLE=loka - Beginningless
DYEAR=2004
DGENRE=Jazz
TTITLE0=beginningless
TTITLE1=airfling
TTITLE2=safe self tester
EXTD=YEAR: 2004
EXTT0=
EXTT1=
EXTT2=
PLAYORDER=
